<svg width="60" height="60" viewBox="0 0 60 60" fill="none" xmlns="http://www.w3.org/2000/svg">
<path d="M18.6925 2.73725L18.6243 1.2388L18.6239 1.23882L18.6925 2.73725ZM12.0353 4.01155L12.5783 5.40981L12.579 5.40954L12.0353 4.01155ZM7.17639 7.17444L8.23665 8.2355L8.23725 8.2349L7.17639 7.17444ZM4.01064 12.0328L5.40823 12.5775L5.40825 12.5775L4.01064 12.0328ZM2.73634 18.69L1.23786 18.6225L1.23784 18.623L2.73634 18.69ZM2.73691 41.3074L1.23845 41.3753L1.2385 41.3763L2.73691 41.3074ZM4.01121 47.9646L2.61307 48.5079L2.6131 48.508L4.01121 47.9646ZM7.17467 52.8235L8.23593 51.7634L8.23514 51.7626L7.17467 52.8235ZM12.0319 55.9892L12.5753 54.5911L12.5752 54.5911L12.0319 55.9892ZM18.6902 57.2635L18.6216 58.762L18.622 58.762L18.6902 57.2635ZM41.3065 57.2635L41.3746 58.762L41.3751 58.762L41.3065 57.2635ZM47.9671 55.9892L47.4239 54.591L47.4237 54.5911L47.9671 55.9892ZM52.8226 52.8235L51.7623 51.7624L51.7613 51.7634L52.8226 52.8235ZM55.9883 47.9652L57.3859 48.5098L57.3875 48.5059L55.9883 47.9652ZM57.2626 41.3079L58.761 41.3783L58.7611 41.3753L57.2626 41.3079ZM57.2626 18.6906L58.7611 18.6232L58.761 18.6202L57.2626 18.6906ZM55.9883 12.0333L57.3874 11.4924L57.386 11.4888L55.9883 12.0333ZM52.8226 7.17444L51.7619 8.2351L51.7623 8.2355L52.8226 7.17444ZM47.9654 4.01155L47.4229 5.41002L47.4232 5.41014L47.9654 4.01155ZM41.3025 2.73725L41.3711 1.23882L41.3706 1.2388L41.3025 2.73725ZM30.0023 1.07153C22.5454 1.07153 21.584 1.10411 18.6243 1.2388L18.7607 4.2357C21.6525 4.1041 22.5609 4.07153 30.0023 4.07153V1.07153ZM18.6239 1.23882C15.5624 1.37901 13.4062 1.86893 11.4916 2.61356L12.579 5.40954C14.1525 4.79758 15.9825 4.36292 18.7611 4.23568L18.6239 1.23882ZM11.4923 2.61328C9.50856 3.38365 7.79801 4.43087 6.11553 6.11398L8.23725 8.2349C9.60394 6.86769 10.954 6.0406 12.5783 5.40981L11.4923 2.61328ZM6.11613 6.11338C4.43231 7.79594 3.38546 9.50616 2.61303 11.4881L5.40825 12.5775C6.04155 10.9525 6.86901 9.60211 8.23665 8.2355L6.11613 6.11338ZM2.61306 11.488C1.86635 13.4037 1.3757 15.5613 1.23786 18.6225L4.23482 18.7575C4.35985 15.9809 4.79492 14.151 5.40823 12.5775L2.61306 11.488ZM1.23784 18.623C1.10551 21.5815 1.0712 22.5426 1.0712 30.0004H4.0712C4.0712 22.5597 4.10545 21.65 4.23484 18.757L1.23784 18.623ZM1.0712 30.0004C1.0712 37.4577 1.10436 38.4159 1.23845 41.3753L4.23538 41.2395C4.10433 38.3473 4.0712 37.4416 4.0712 30.0004H1.0712ZM1.2385 41.3763C1.37928 44.4376 1.86918 46.5936 2.61307 48.5079L5.40936 47.4213C4.79781 45.8475 4.36312 44.0172 4.23533 41.2385L1.2385 41.3763ZM2.6131 48.508C3.38398 50.4914 4.4311 52.2019 6.11421 53.8843L8.23514 51.7626C6.86793 50.3959 6.04075 49.0458 5.40933 47.4212L2.6131 48.508ZM6.11342 53.8836C7.79477 55.5668 9.50513 56.6166 11.4886 57.3874L12.5752 54.5911C10.9529 53.9607 9.60261 53.1316 8.23593 51.7634L6.11342 53.8836ZM11.4885 57.3873C13.404 58.1318 15.5607 58.6218 18.6216 58.762L18.7589 55.7651C15.9809 55.6379 14.1501 55.2032 12.5753 54.5911L11.4885 57.3873ZM18.622 58.762C21.5817 58.8967 22.5425 58.9293 29.9989 58.9293V55.9293C22.558 55.9293 21.6502 55.8967 18.7584 55.7651L18.622 58.762ZM29.9989 58.9293C37.4565 58.9293 38.415 58.8967 41.3746 58.762L41.2383 55.7651C38.3464 55.8967 37.4409 55.9293 29.9989 55.9293V58.9293ZM41.3751 58.762C44.4364 58.6218 46.5948 58.1319 48.5105 57.3873L47.4237 54.5911C45.849 55.2031 44.0166 55.6379 41.2378 55.7651L41.3751 58.762ZM48.5103 57.3874C50.495 56.6164 52.2029 55.5664 53.8838 53.8836L51.7613 51.7634C50.3942 53.1321 49.0461 53.9609 47.4239 54.591L48.5103 57.3874ZM53.8828 53.8845C55.5667 52.202 56.6135 50.4918 57.3859 48.5098L54.5907 47.4205C53.9574 49.0454 53.13 50.3958 51.7623 51.7624L53.8828 53.8845ZM57.3875 48.5059C58.1268 46.5931 58.6172 44.4381 58.761 41.3783L55.7643 41.2375C55.6337 44.0156 55.1985 45.848 54.5892 47.4244L57.3875 48.5059ZM58.7611 41.3753C58.894 38.4165 58.9283 37.4582 58.9283 30.0004H55.9283C55.9283 37.441 55.8941 38.3478 55.7641 41.2406L58.7611 41.3753ZM58.9283 30.0004C58.9283 22.5426 58.894 21.582 58.7611 18.6232L55.7641 18.7579C55.8941 21.6506 55.9283 22.5597 55.9283 30.0004H58.9283ZM58.761 18.6202C58.6172 15.5593 58.1268 13.4048 57.3874 11.4924L54.5893 12.5743C55.1985 14.1499 55.6337 15.9817 55.7643 18.7609L58.761 18.6202ZM57.386 11.4888C56.6136 9.50622 55.5667 7.79596 53.8828 6.11338L51.7623 8.2355C53.1299 9.60209 53.9574 10.9524 54.5907 12.5779L57.386 11.4888ZM53.8832 6.11378C52.2006 4.43115 50.4949 3.38337 48.5076 2.61296L47.4232 5.41014C49.0473 6.03975 50.3931 6.86627 51.7619 8.2351L53.8832 6.11378ZM48.5079 2.61308C46.5896 1.86896 44.4327 1.37902 41.3711 1.23882L41.2338 4.23568C44.0123 4.36291 45.844 4.79755 47.4229 5.41002L48.5079 2.61308ZM41.3706 1.2388C38.411 1.10411 37.453 1.07153 29.9938 1.07153V4.07153C37.4375 4.07153 38.3424 4.1041 41.2343 4.2357L41.3706 1.2388ZM29.9938 4.07153H30.0023V1.07153H29.9938V4.07153Z" fill="#7481AA"/>
<path d="M46.0712 9.21582C43.4691 9.21582 41.3569 11.3246 41.3569 13.929H44.3569C44.3569 12.9832 45.1242 12.2158 46.0712 12.2158V9.21582ZM50.7855 13.929C50.7855 11.3253 48.6735 9.21582 46.0712 9.21582V12.2158C47.018 12.2158 47.7855 12.9835 47.7855 13.929H50.7855ZM46.0712 18.6433C48.6742 18.6433 50.7855 16.532 50.7855 13.929H47.7855C47.7855 14.8751 47.0173 15.6433 46.0712 15.6433V18.6433ZM41.3569 13.929C41.3569 16.532 43.4682 18.6433 46.0712 18.6433V15.6433C45.1251 15.6433 44.3569 14.8751 44.3569 13.929H41.3569ZM30.0008 16.2775C22.4221 16.2775 16.2776 22.4221 16.2776 30.0009H19.2776C19.2776 24.0789 24.079 19.2775 30.0008 19.2775V16.2775ZM30.0003 19.2775H30.0008V16.2775H30.0003V19.2775ZM43.722 30.0009C43.722 22.4223 37.5793 16.2775 30.0003 16.2775V19.2775C35.9219 19.2775 40.722 24.0786 40.722 30.0009H43.722ZM30.0008 43.7219C37.5795 43.7219 43.722 37.5798 43.722 30.0009H40.722C40.722 35.9229 35.9227 40.7219 30.0008 40.7219V43.7219ZM16.2776 30.0009C16.2776 37.5801 22.4225 43.7219 30.0008 43.7219V40.7219C24.0786 40.7219 19.2776 35.9225 19.2776 30.0009H16.2776Z" fill="#7481AA"/>
</svg>
