<svg width="64" height="64" viewBox="0 0 64 64" fill="none" xmlns="http://www.w3.org/2000/svg">
<path d="M27.0104 38.1028L28.2576 38.1861L28.3032 37.5032L27.7525 37.0969L27.0104 38.1028ZM26.5 45.75L25.2528 45.6668L25.1638 47H26.5V45.75ZM27.01 38.1025L26.1725 37.1745L25.0364 38.1998L26.2679 39.1084L27.01 38.1025ZM40.9211 25.5488L40.0914 24.6138L40.0837 24.6208L40.9211 25.5488ZM39.9773 25.2342L39.3292 24.1653L39.3197 24.1711L39.3104 24.177L39.9773 25.2342ZM22.8091 36.0654L22.4367 37.2586L22.9878 37.4306L23.4761 37.1226L22.8091 36.0654ZM15.3933 33.7508L15.7658 32.5576L15.7593 32.5556L15.3933 33.7508ZM15.7529 31.3688L15.3032 30.2025L15.2953 30.2055L15.2876 30.2087L15.7529 31.3688ZM44.6504 20.2261L45.1001 21.3924L45.134 21.3793L45.1671 21.3643L44.6504 20.2261ZM46.7402 22.5631L45.5274 22.2606L45.522 22.282L45.5175 22.3036L46.7402 22.5631ZM41.819 45.7539L40.5962 45.4944L40.5953 45.4987L41.819 45.7539ZM39.1 47.0348L38.3572 48.0401L38.4237 48.0893L38.4961 48.1292L39.1 47.0348ZM31.6034 41.4962L32.3462 40.4908L31.4927 39.8602L30.732 40.6L31.6034 41.4962ZM28 45L28.8713 45.8963L28.8714 45.8962L28 45ZM27.9661 45.033L27.0941 44.1373L27.0941 44.1374L27.9661 45.033ZM32 60.75C16.1218 60.75 3.25 47.8782 3.25 32H0.75C0.75 49.2589 14.7411 63.25 32 63.25V60.75ZM60.75 32C60.75 47.8782 47.8782 60.75 32 60.75V63.25C49.2589 63.25 63.25 49.2589 63.25 32H60.75ZM32 3.25C47.8782 3.25 60.75 16.1218 60.75 32H63.25C63.25 14.7411 49.2589 0.75 32 0.75V3.25ZM3.25 32C3.25 16.1218 16.1218 3.25 32 3.25V0.75C14.7411 0.75 0.75 14.7411 0.75 32H3.25ZM25.7632 38.0196L25.2528 45.6668L27.7472 45.8332L28.2576 38.1861L25.7632 38.0196ZM26.2679 39.1084L26.2683 39.1087L27.7525 37.0969L27.7521 37.0966L26.2679 39.1084ZM40.0837 24.6208L26.1725 37.1745L27.8474 39.0305L41.7586 26.4768L40.0837 24.6208ZM40.6255 26.303C40.7163 26.2479 40.7818 26.2288 40.8048 26.2241C40.8516 26.2144 40.7565 26.248 40.5766 26.1863C40.4795 26.153 40.3045 26.0723 40.1481 25.8863C39.9749 25.6805 39.8864 25.4171 39.8961 25.1556C39.9121 24.7217 40.1736 24.5409 40.0914 24.6139L41.7509 26.4837C41.9739 26.2857 42.3714 25.8687 42.3944 25.2482C42.4075 24.8934 42.2902 24.5491 42.061 24.2767C41.8485 24.0242 41.5902 23.891 41.3876 23.8216C40.9968 23.6875 40.6019 23.7134 40.3004 23.7755C39.975 23.8425 39.6436 23.9746 39.3292 24.1653L40.6255 26.303ZM23.4761 37.1226L40.6443 26.2913L39.3104 24.177L22.1421 35.0082L23.4761 37.1226ZM15.0209 34.9441L22.4367 37.2586L23.1815 34.8722L15.7658 32.5576L15.0209 34.9441ZM15.2876 30.2087C14.7129 30.4392 14.2047 30.7218 13.8116 31.0692C13.4265 31.4095 13.0535 31.9036 12.9891 32.5483C12.92 33.2399 13.2327 33.809 13.6385 34.1921C14.023 34.555 14.5212 34.7911 15.0274 34.9461L15.7593 32.5556C15.6198 32.5129 15.5184 32.4697 15.4489 32.4333C15.3782 32.3962 15.353 32.3726 15.3545 32.374C15.3567 32.3761 15.3958 32.4136 15.4308 32.4946C15.4684 32.5817 15.4875 32.6882 15.4767 32.7969C15.4557 33.0064 15.3496 33.0463 15.4671 32.9425C15.5766 32.8457 15.8067 32.6941 16.2182 32.529L15.2876 30.2087ZM44.2007 19.0598L15.3032 30.2025L16.2026 32.5351L45.1001 21.3924L44.2007 19.0598ZM47.9531 22.8656C48.2683 21.6019 48.1032 20.3408 47.2482 19.5139C46.3757 18.6701 45.1459 18.6283 44.1336 19.0879L45.1671 21.3643C45.3207 21.2945 45.422 21.2918 45.4658 21.2967C45.5036 21.3009 45.5095 21.3102 45.5102 21.3109C45.5123 21.313 45.5571 21.3554 45.5843 21.4971C45.6124 21.6439 45.6191 21.893 45.5274 22.2606L47.9531 22.8656ZM43.0418 46.0134L47.963 22.8226L45.5175 22.3036L40.5962 45.4944L43.0418 46.0134ZM38.4961 48.1292C39.3316 48.5902 40.3725 48.8834 41.3618 48.4373C42.3577 47.9882 42.8358 47.0013 43.0427 46.009L40.5953 45.4987C40.4586 46.1545 40.2669 46.1886 40.3342 46.1582C40.3948 46.1309 40.248 46.2405 39.7039 45.9403L38.4961 48.1292ZM30.8606 42.5015L38.3572 48.0401L39.8428 46.0294L32.3462 40.4908L30.8606 42.5015ZM28.8714 45.8962L32.4748 42.3923L30.732 40.6L27.1286 44.1038L28.8714 45.8962ZM28.838 45.9287C28.8493 45.9177 28.8603 45.907 28.8713 45.8963L27.1287 44.1037C27.1169 44.1151 27.1053 44.1264 27.0941 44.1373L28.838 45.9287ZM26.5 47C27.0722 47 27.5559 46.867 27.9817 46.6205C28.3643 46.3991 28.6575 46.1044 28.8381 45.9286L27.0941 44.1374C26.8716 44.354 26.7967 44.4178 26.7293 44.4568C26.7074 44.4695 26.6887 44.4774 26.6647 44.4836C26.639 44.4903 26.5884 44.5 26.5 44.5V47Z" fill="#7481AA"/>
</svg>
