<svg width="56" height="56" viewBox="0 0 56 56" fill="none" xmlns="http://www.w3.org/2000/svg">
<path d="M28.5256 53.0238L28.5472 51.774L28.5364 51.7738H28.5256V53.0238ZM54.3055 27.2439L55.5555 27.2444V27.2444L54.3055 27.2439ZM50.5803 8.12892L51.6044 7.4121L50.5803 8.12892ZM28.5253 1.44505L28.5258 0.19505H28.5253V1.44505ZM2.74492 27.2236L3.99492 27.2241V27.2241L2.74492 27.2236ZM6.18615 40.1119L7.39178 40.4419L7.5295 39.9389L7.26883 39.4871L6.18615 40.1119ZM2.52878 53.4709L1.32314 53.1408L0.751329 55.2294L2.84595 54.68L2.52878 53.4709ZM16.1952 49.8859L16.7938 48.7885L16.3581 48.5509L15.878 48.6768L16.1952 49.8859ZM28.5149 53.0238L28.5145 54.2738H28.5149V53.0238ZM28.5039 54.2736C41.5242 54.4994 48.5278 51.5932 52.1136 46.3349C53.8774 43.7485 54.7234 40.7128 55.14 37.4904C55.5553 34.2778 55.5541 30.7776 55.5555 27.2444L53.0555 27.2434C53.0541 30.8156 53.0515 34.1466 52.6606 37.1698C52.2711 40.1833 51.5062 42.7882 50.0482 44.9263C47.1905 49.1169 41.3069 51.9953 28.5472 51.774L28.5039 54.2736ZM55.5555 27.2444C55.5569 23.7458 55.2995 19.8614 54.6919 16.3422C54.0913 12.864 53.1227 9.58115 51.6044 7.4121L49.5563 8.84575C50.7476 10.5477 51.6431 13.3781 52.2283 16.7676C52.8065 20.1161 53.0569 23.8537 53.0555 27.2434L55.5555 27.2444ZM51.6044 7.4121C48.7699 3.36277 44.6261 1.57832 40.4333 0.794522C36.2809 0.0182862 31.898 0.196506 28.5258 0.19505L28.5248 2.69505C32.0491 2.69657 36.1132 2.53024 39.9739 3.25195C43.7942 3.96611 47.2298 5.5221 49.5563 8.84575L51.6044 7.4121ZM28.5253 0.19505C15.5161 0.19505 8.52334 3.10355 4.94084 8.29394C3.17508 10.8522 2.32776 13.8469 1.91067 17.037C1.49506 20.2159 1.49633 23.6896 1.49492 27.2231L3.99492 27.2241C3.99634 23.6505 3.99902 20.3483 4.38958 17.3611C4.77866 14.3852 5.54226 11.8236 6.99833 9.71405C9.85952 5.56872 15.7542 2.69505 28.5253 2.69505V0.19505ZM1.49492 27.223C1.49289 31.9855 2.73738 36.6362 5.10346 40.7366L7.26883 39.4871C5.12282 35.7681 3.99308 31.5489 3.99492 27.2241L1.49492 27.223ZM4.98051 39.7818L1.32314 53.1408L3.73441 53.8009L7.39178 40.4419L4.98051 39.7818ZM2.84595 54.68L16.5124 51.095L15.878 48.6768L2.21161 52.2618L2.84595 54.68ZM15.5966 50.9832C19.546 53.1375 23.9913 54.2722 28.5145 54.2738L28.5153 51.7738C24.4092 51.7724 20.3753 50.7421 16.7938 48.7885L15.5966 50.9832ZM28.5149 54.2738H28.5256V51.7738H28.5149V54.2738Z" fill="#7481AA"/>
<path d="M41.5134 33.3743L40.4411 34.0167L40.4412 34.0169L41.5134 33.3743ZM40.2789 32.6218L40.8386 31.5041L40.8384 31.504L40.2789 32.6218ZM35.8772 30.5261L36.3051 29.3516L36.3047 29.3515L35.8772 30.5261ZM34.4279 30.8485L33.3875 30.1556L33.3875 30.1557L34.4279 30.8485ZM32.3883 33.3743L33.3293 34.1971L33.3294 34.1969L32.3883 33.3743ZM30.9928 33.5355L31.5526 32.4179L31.5523 32.4177L30.9928 33.5355ZM25.8126 30.3383L24.9805 31.2711L24.9805 31.2711L25.8126 30.3383ZM22.2291 25.8759L21.149 26.5052V26.5052L22.2291 25.8759ZM22.5115 24.5613L23.3936 25.4469L23.3937 25.4469L22.5115 24.5613ZM24.1219 22.3582L25.24 22.9171L25.2403 22.9165L24.1219 22.3582ZM24.0682 21.2296L22.9499 21.7881L22.9499 21.7882L24.0682 21.2296ZM22.0821 16.4467L23.2362 15.9664L23.2361 15.9663L22.0821 16.4467ZM20.6328 15.3409L20.5701 16.5894L20.5702 16.5894L20.6328 15.3409ZM17.6805 16.1242L16.7585 15.2802V15.2802L17.6805 16.1242ZM18.0562 28.1616L19.0568 27.4124L19.0565 27.412L18.0562 28.1616ZM29.0603 37.8882L29.5559 36.7406L29.5559 36.7406L29.0603 37.8882ZM32.7326 39.2451L33.1112 38.0538L33.1106 38.0536L32.7326 39.2451ZM36.7897 39.5003L36.6051 38.264L36.6049 38.2641L36.7897 39.5003ZM41.1379 36.4375L42.3151 36.8577L42.3153 36.8573L41.1379 36.4375ZM42.5857 32.7319C42.3217 32.2911 41.9116 32.0503 41.679 31.9226C41.4495 31.7966 41.0882 31.6291 40.8386 31.5041L39.7192 33.7395C39.8897 33.8249 40.0497 33.9014 40.1755 33.9624C40.309 34.0271 40.4024 34.0737 40.4757 34.1139C40.5501 34.1548 40.5708 34.1715 40.5658 34.1676C40.558 34.1614 40.4992 34.1136 40.4411 34.0167L42.5857 32.7319ZM40.8384 31.504C40.5102 31.3398 39.5521 30.867 38.6014 30.4081C37.6904 29.9683 36.6758 29.4867 36.3051 29.3516L35.4493 31.7006C35.6692 31.7807 36.5334 32.1858 37.5145 32.6594C38.456 33.114 39.4034 33.5815 39.7194 33.7396L40.8384 31.504ZM36.3047 29.3515C36.0472 29.2577 35.5213 29.0577 34.9501 29.1231C34.2408 29.2043 33.7365 29.6316 33.3875 30.1556L35.4683 31.5414C35.5161 31.4697 35.5218 31.4831 35.4713 31.5186C35.4446 31.5373 35.4079 31.5582 35.3623 31.5755C35.3166 31.5928 35.2726 31.6025 35.2343 31.6069C35.1621 31.6151 35.1324 31.6019 35.1791 31.6127C35.2008 31.6178 35.2329 31.6265 35.28 31.6417C35.3272 31.6569 35.3817 31.676 35.4497 31.7007L36.3047 29.3515ZM33.3875 30.1557C33.0125 30.7188 31.8373 32.1053 31.4471 32.5516L33.3294 34.1969C33.6909 33.7834 34.9846 32.2677 35.4683 31.5413L33.3875 30.1557ZM31.4473 32.5515C31.4102 32.5939 31.4093 32.5849 31.4466 32.5619C31.4665 32.5496 31.4947 32.535 31.5306 32.5222C31.5668 32.5092 31.6041 32.5005 31.6403 32.4961C31.714 32.4872 31.7533 32.4993 31.7386 32.4956C31.7198 32.4908 31.6619 32.4726 31.5526 32.4179L30.433 34.6531C30.8375 34.8558 31.3594 35.0486 31.9418 34.9779C32.5753 34.9009 33.0221 34.5485 33.3293 34.1971L31.4473 32.5515ZM31.5523 32.4177C30.7857 32.034 28.9432 31.4557 26.6446 29.4054L24.9805 31.2711C27.6029 33.6102 29.9116 34.3922 30.4333 34.6533L31.5523 32.4177ZM26.6446 29.4055C24.8779 27.8295 23.6641 25.8559 23.3091 25.2466L21.149 26.5052C21.5456 27.1858 22.9174 29.4308 24.9805 31.2711L26.6446 29.4055ZM23.3091 25.2466C23.2798 25.1963 23.3001 25.213 23.3093 25.2859C23.314 25.3224 23.3148 25.3654 23.3092 25.412C23.3035 25.4583 23.2926 25.4992 23.2801 25.5327C23.2565 25.5962 23.2323 25.62 23.2512 25.5965C23.2599 25.5859 23.2745 25.5689 23.2992 25.5428C23.3246 25.516 23.3535 25.4869 23.3936 25.4469L21.6293 23.6757C21.5015 23.803 21.125 24.1553 20.9367 24.6618C20.7041 25.2876 20.8121 25.927 21.149 26.5052L23.3091 25.2466ZM23.3937 25.4469C23.7264 25.1154 24.1858 24.5277 24.4271 24.2458L22.5284 22.6196C22.1256 23.0899 21.8761 23.4298 21.6293 23.6758L23.3937 25.4469ZM24.4271 24.2458C24.8728 23.7255 25.0541 23.2891 25.24 22.9171L23.0038 21.7994C22.7603 22.2866 22.7268 22.388 22.5284 22.6196L24.4271 24.2458ZM25.2403 22.9165C25.7095 21.9766 25.4252 21.149 25.1864 20.671L22.9499 21.7882C22.9722 21.8328 22.9839 21.862 22.9899 21.8799C22.9957 21.897 22.9943 21.8981 22.993 21.8866C22.9916 21.8735 22.9914 21.8533 22.9954 21.8306C22.9972 21.82 22.9996 21.8114 23.0016 21.8054C23.0036 21.7994 23.0047 21.7975 23.0035 21.7999L25.2403 22.9165ZM25.1865 20.6712C25.1892 20.6767 25.184 20.6662 25.1667 20.6275C25.1514 20.5932 25.1315 20.5476 25.1068 20.4903C25.0575 20.3758 24.9938 20.2249 24.9185 20.0451C24.7682 19.6859 24.5765 19.2219 24.372 18.7251C23.9647 17.7358 23.5057 16.6141 23.2362 15.9664L20.9281 16.927C21.1953 17.5691 21.6489 18.6776 22.0602 19.6768C22.4535 20.6322 22.8427 21.5734 22.9499 21.7881L25.1865 20.6712ZM23.2361 15.9663C22.92 15.2069 22.4926 14.6066 21.8436 14.3C21.2977 14.0421 20.5855 14.087 20.6955 14.0925L20.5702 16.5894C20.6621 16.594 20.753 16.5928 20.7942 16.5926C20.8485 16.5923 20.8682 16.5927 20.8815 16.5934C20.8956 16.5942 20.8438 16.5926 20.7757 16.5604C20.6218 16.4877 20.7214 16.4304 20.9281 16.9271L23.2361 15.9663ZM20.6955 14.0925C20.287 14.072 19.8308 14.0681 19.3982 14.0681V16.5681C19.8244 16.5681 20.228 16.5722 20.5701 16.5894L20.6955 14.0925ZM19.3982 14.0681C18.6821 14.0681 17.6257 14.3329 16.7585 15.2802L18.6024 16.9683C18.9161 16.6258 19.2555 16.5681 19.3982 16.5681V14.0681ZM16.7585 15.2802C16.1622 15.9315 14.176 17.8063 14.176 21.498H16.676C16.676 18.8488 18.0179 17.6068 18.6024 16.9683L16.7585 15.2802ZM14.176 21.498C14.176 23.3646 14.8478 25.1277 15.5057 26.4235C16.1726 27.7369 16.8817 28.6788 17.0559 28.9112L19.0565 27.412C18.9086 27.2146 18.3026 26.41 17.7349 25.2917C17.1582 24.1559 16.676 22.8021 16.676 21.498H14.176ZM17.0556 28.9108C17.054 28.9087 17.0589 28.9152 17.0761 28.9396C17.0915 28.9615 17.1111 28.9895 17.1365 29.026C17.1865 29.0977 17.2538 29.1943 17.336 29.3105C17.5009 29.5436 17.7258 29.8555 18.0071 30.2261C18.569 30.9665 19.3566 31.942 20.3441 32.9949C22.3076 35.0886 25.115 37.5461 28.5648 39.0357L29.5559 36.7406C23.4638 34.11 19.4456 27.9316 19.0568 27.4124L17.0556 28.9108ZM28.5647 39.0357C30.1562 39.723 31.4004 40.1338 32.3545 40.4365L33.1106 38.0536C32.1935 37.7626 31.0381 37.3807 29.5559 36.7406L28.5647 39.0357ZM32.354 40.4363C34.1459 41.0059 35.7608 40.9181 36.9746 40.7366L36.6049 38.2641C35.5992 38.4144 34.4053 38.4651 33.1112 38.0538L32.354 40.4363ZM36.9744 40.7366C37.8276 40.6092 38.9486 40.1267 39.9011 39.5162C40.8235 38.925 41.9019 38.0155 42.3151 36.8577L39.9606 36.0174C39.8368 36.3642 39.36 36.8936 38.5521 37.4114C37.7741 37.91 36.9896 38.2066 36.6051 38.264L36.9744 40.7366ZM42.3153 36.8573C42.62 36.0025 42.7766 35.1988 42.8326 34.5497C42.8605 34.2265 42.8651 33.9227 42.8443 33.6571C42.8289 33.4603 42.7881 33.0695 42.5856 32.7317L40.4412 34.0169C40.3972 33.9435 40.374 33.8839 40.3635 33.8542C40.3521 33.822 40.3471 33.8009 40.3459 33.7953C40.3437 33.7857 40.348 33.8022 40.3519 33.8521C40.3596 33.9509 40.3609 34.1139 40.3418 34.3348C40.3039 34.774 40.1922 35.3676 39.9605 36.0178L42.3153 36.8573Z" fill="#7481AA"/>
<path d="M37.5555 21.675C37.3899 20.3293 36.9763 19.2726 36.2417 18.3367C35.2879 17.1315 34.069 16.4098 32.2644 15.9817C31.0884 15.6964 30.6132 15.7291 30.1879 16.1177C29.7917 16.4817 29.7143 17.2114 30.0171 17.684C30.23 18.027 30.4756 18.1498 31.1588 18.2839C32.0686 18.4513 32.6973 18.6686 33.2693 18.9956C34.4832 19.6965 35.0485 20.7934 35.109 22.5691C35.1373 23.4029 35.2093 23.6592 35.5005 23.9549C36.0403 24.4955 37.0009 24.3903 37.4083 23.7435C37.5579 23.4997 37.5806 23.3935 37.5964 22.8274C37.6069 22.4769 37.5918 21.9552 37.5555 21.675Z" fill="#7481AA"/>
<path d="M42.3101 23.1924C42.0703 19.0695 40.4577 15.7524 37.5716 13.4186C35.9455 12.1072 33.98 11.2055 31.8255 10.7669C31.0363 10.6101 29.5832 10.483 29.3339 10.5557C29.0987 10.623 28.766 10.8777 28.6177 11.1081C28.4608 11.3579 28.4255 11.9156 28.5593 12.2381C28.7752 12.7774 29.1769 12.968 30.3018 13.0664C32.0361 13.2181 33.8248 13.8274 35.1764 14.7294C36.7194 15.7564 37.9459 17.1612 38.7394 18.8118C39.425 20.2301 39.8467 22.274 39.835 24.1043C39.8311 24.7663 39.9333 25.1401 40.1995 25.4134C40.6014 25.8337 41.1871 25.9256 41.704 25.6464C42.2769 25.3452 42.4109 24.8163 42.3101 23.1924Z" fill="#7481AA"/>
<path d="M47.1503 24.1392C47.0642 21.8071 46.6716 19.8941 45.8528 17.7614C45.0445 15.6635 44.2264 14.2945 42.6813 12.4428C41.2206 10.7067 40.086 9.71543 38.2866 8.61199C35.7761 7.07458 32.7209 6.05718 29.2969 5.62931C28.1293 5.47977 27.8651 5.49045 27.5069 5.72948C26.8127 6.18228 26.822 7.31168 27.5184 7.7577C27.7489 7.89957 27.9534 7.95126 28.8874 8.07351C30.3212 8.26655 31.2432 8.44847 32.3371 8.74695C36.627 9.91964 39.9259 12.3166 42.1314 15.8749C43.9771 18.8407 44.7432 21.8068 44.6344 25.5949C44.5966 26.8756 44.6241 27.101 44.8198 27.4087C45.1948 27.9822 46.1834 28.0956 46.6906 27.6197C47.0062 27.3297 47.0657 27.1119 47.1278 26.0158C47.1576 25.444 47.164 24.6 47.1503 24.1392Z" fill="#7481AA"/>
</svg>
